<?xml version="1.0" encoding="UTF-8"?>
<svg id="_图层_1" data-name="图层 1" xmlns="http://www.w3.org/2000/svg" viewBox="0 0 512.19 511.92">
  <defs>
    <style>
      .cls-1 {
        fill: #ababab;
      }

      .cls-1, .cls-2 {
        stroke-width: 0px;
      }

      .cls-2 {
        fill: #a22036;
      }
    </style>
  </defs>
  <path class="cls-1" d="M2.3,287.97c-2.02-13.82-2.73-27.73-2.05-41.64,1.34-27.46,6.28-54.25,16.17-80.02,7.42-19.36,16.68-37.74,28.49-54.82,17.19-24.86,38.03-46.04,62.58-63.75,26.46-19.09,55.6-32.28,87.05-40.34,13.86-3.55,28.04-5.54,42.39-6.65,8.47-.65,16.9-.86,25.34-.71,17.01.29,33.8,2.67,50.45,6.2,19.79,4.2,38.67,11.13,56.62,20.12,18.5,9.27,35.9,20.47,51.79,34,23.26,19.81,42.7,42.75,57.7,69.27,14.54,25.72,24.43,53.16,29.39,82.46,3.2,18.89,4.7,37.83,3.67,56.84-1.45,26.94-6.95,53.15-16.64,78.43-8.98,23.44-21.17,45.1-36.49,64.89-12.36,15.97-26.51,30.26-42.3,43.01-13.69,11.06-28.32,20.57-43.86,28.59-20.89,10.79-42.97,18.41-66.09,22.98-20.37,4.03-40.93,5.58-61.65,4.93-4.62-.15-9.22-.71-13.83-1.09-1.19-1.35-2.25-2.85-3.59-4.02-10.74-9.28-20.57-19.49-30.38-29.73.97.1,1.97.09,2.92.31,17.07,4,34.27,6.94,51.89,6.54,8.78-.2,17.53.11,26.35-.78,11.51-1.16,22.85-3.02,34.01-5.83,21.72-5.46,42.18-14.02,61.43-25.56,25.03-15,46.3-34.29,63.99-57.28,17.34-22.53,30.12-47.59,37.77-75.15,5.14-18.51,8.68-37.24,8.57-56.5-.05-9.61.22-19.2-.75-28.85-1.16-11.52-2.96-22.87-5.82-34.02-4.81-18.74-11.83-36.6-21.16-53.68-14.34-26.25-33.27-48.64-56.22-67.46-23.56-19.32-50.18-33.37-79.62-41.78-18.94-5.42-38.16-8.9-57.95-9-16.4-.08-32.63.79-48.86,3.81-25.61,4.75-49.56,13.79-71.97,26.64-22.54,12.92-42.11,29.64-59.03,49.5-9.79,11.49-18.44,23.68-25.77,36.83-16.38,29.4-26.14,60.97-28.43,94.45-1.65,24.13-.15,48.28,6.27,71.87.78,2.88,2.26,5.72,1.48,8.89-6.74-5.59-13.14-11.53-19.27-17.77-4.75-4.84-9.72-9.45-14.59-14.16Z"/>
  <path class="cls-2" d="M197.04,476.94c9.81,10.23,19.64,20.44,30.38,29.73,1.35,1.16,2.4,2.67,3.59,4.02-10.73-.7-21.31-2.57-31.75-4.97-21.69-4.99-42.54-12.43-62.17-22.96-15.63-8.38-30.51-17.93-44.05-29.5-6.77-5.78-13.65-11.42-19.78-17.88-15.78-16.62-29.55-34.71-40.84-54.75-12.67-22.48-21.28-46.43-26.94-71.46-1.57-6.92-3.07-13.99-3.16-21.2,4.87,4.71,9.84,9.33,14.59,14.16,6.13,6.25,12.53,12.19,19.27,17.77.67,1.09,1.56,2.11,1.97,3.29,2.7,7.94,5.64,15.77,8.9,23.52,9.94,23.64,23.88,44.65,41.11,63.48,7.9,8.63,16.51,16.58,25.69,23.93,19.94,15.95,41.97,28,65.91,36.76,5.74,2.1,11.89,3.03,17.3,6.06Z"/>
  <path class="cls-1" d="M215.26,271.67c1.83,3.93,5.33,5.19,7.82,7.53,1.79,1.68,3.62.14,4.92-.87,14.19-11.02,28.04-22.51,42.54-33.09,6.35-4.63,8.25-9.82,7.68-17.22-.59-7.62.02-15.32-.2-22.97-.1-3.33,1.04-4.25,4.27-4.2,9.99.18,19.99.13,29.98.02,2.65-.03,3.87.55,3.86,3.56-.09,34.31-.09,68.62,0,102.93,0,2.99-1.2,3.6-3.86,3.57-9.99-.11-19.99-.16-29.98.02-3.22.06-4.33-.85-4.28-4.19.19-10.98.07-21.97.07-34.02-6.91,5.37-13.23,10.25-19.51,15.17-14.01,10.98-28.03,21.96-41.99,33-2.01,1.59-3.15.54-4.7-.69-17.31-13.72-34.67-27.38-52.01-41.05-.62-.49-1.19-1.38-2.11-.8-1.02.64-.63,1.79-.63,2.73-.03,8.33-.18,16.66.05,24.98.1,3.54-.63,4.93-4.59,4.9-25.65-.18-51.3-.15-76.94-.03-3.36.02-4.68-.74-4.59-4.38.24-9.82.2-19.65.02-29.48-.06-3.24.89-4.31,4.2-4.26,12.82.17,25.65-.07,38.47.15,4.13.07,5.49-1.24,5.46-5.42-.17-20.65.01-41.3-.16-61.95-.03-3.72.96-4.87,4.73-4.77,9.65.26,19.32.24,28.98,0,3.58-.09,4.53,1.11,4.44,4.55-.22,8.32-.1,16.65-.04,24.98,0,1.06-.61,2.51.76,3.12,1.11.5,1.69-.73,2.43-1.31,17.35-13.67,34.71-27.33,52.01-41.05,1.57-1.24,2.7-1.44,4.34-.13,5.8,4.62,11.71,9.1,17.56,13.66,1.38,1.08,1.87,1.83-.03,3.3-15.91,12.28-31.67,24.76-47.56,37.08-2.65,2.05-3.03,3.53-.14,5.65,7.04,5.18,6.87,5.09,13.91-.54,14.15-11.33,28.44-22.51,42.73-33.67,1.86-1.45,3.72-2.11,6.15,0,5.09,4.43,10.52,8.47,15.98,12.45,2.31,1.69,1.69,2.89-.02,4.22-14.41,11.27-28.79,22.57-43.29,33.72-2.22,1.71-3.66,4.33-6.74,4.81Z"/>
  <path class="cls-1" d="M379.06,256.13c0,16.64-.09,33.29.07,49.93.03,3.51-.59,5.03-4.58,4.91-9.98-.29-19.97-.22-29.95-.03-3.34.06-4.62-.71-4.61-4.36.13-33.78.11-67.57.02-101.36,0-3.07.57-4.46,4.06-4.39,10.31.21,20.64.21,30.95,0,3.46-.07,4.11,1.27,4.09,4.37-.12,16.97-.06,33.95-.06,50.93Z"/>
  <path class="cls-1" d="M403.05,255.66c0-16.48.18-32.96-.12-49.43-.08-4.58,1.35-5.57,5.62-5.42,9.31.32,18.64.22,27.96.03,3.33-.07,4.63.69,4.61,4.35-.13,33.78-.11,67.57-.02,101.35,0,3.06-.55,4.47-4.05,4.4-9.98-.22-19.97-.21-29.95,0-3.45.07-4.12-1.26-4.09-4.36.12-16.97.06-33.95.06-50.93Z"/>
</svg>